<svg xmlns="http://www.w3.org/2000/svg" width="128" height="128" viewBox="0 0 128 128" role="img" aria-label="Sorvete">
  <defs>
    <linearGradient id="fundo" x1="0" y1="0" x2="1" y2="1">
      <stop offset="0" stop-color="#2B2110"/>
      <stop offset="1" stop-color="#0B0906"/>
    </linearGradient>
    <linearGradient id="casquinha" x1="0" y1="0" x2="0" y2="1">
      <stop offset="0" stop-color="#E2BE63"/>
      <stop offset="1" stop-color="#A67C1C"/>
    </linearGradient>
    <linearGradient id="bola1" x1="0" y1="0" x2="0" y2="1">
      <stop offset="0" stop-color="#FFF4DA"/>
      <stop offset="1" stop-color="#EAD39A"/>
    </linearGradient>
    <linearGradient id="bola2" x1="0" y1="0" x2="0" y2="1">
      <stop offset="0" stop-color="#F7C4CF"/>
      <stop offset="1" stop-color="#DC8E9F"/>
    </linearGradient>
    <clipPath id="cone"><path d="M40 66h48L64 116z"/></clipPath>
  </defs>
  <rect width="128" height="128" rx="28" fill="url(#fundo)"/>
  <!-- casquinha com a trama de waffle -->
  <path d="M40 66h48L64 116z" fill="url(#casquinha)"/>
  <g clip-path="url(#cone)" stroke="#7A5A10" stroke-width="2" opacity=".55">
    <path d="M30 60l50 50M42 60l50 50M54 60l50 50M18 60l50 50M6 60l50 50"/>
    <path d="M98 60l-50 50M86 60l-50 50M74 60l-50 50M110 60l-50 50M122 60l-50 50"/>
  </g>
  <!-- bola de baixo (creme) e de cima (morango) -->
  <path d="M36 68c-4-14 8-26 28-26s32 12 28 26c-3 4-8 2-11 5-4-4-8-1-12 1-4-3-9-3-13 0-4-3-8-1-11-2-3-1-6-1-9-4z" fill="url(#bola1)"/>
  <circle cx="64" cy="36" r="19" fill="url(#bola2)"/>
  <path d="M47 42c3 5 8 7 17 7s14-2 17-7c-1 6-2 9-6 11-4-2-8 0-11 2-3-2-7-3-11-1-4-2-6-5-6-12z" fill="#DC8E9F"/>
  <!-- cereja e brilhos -->
  <path d="M64 17c2-5 6-8 11-9" stroke="#5E4508" stroke-width="2.5" fill="none" stroke-linecap="round"/>
  <circle cx="64" cy="18" r="6" fill="#C8323E"/>
  <circle cx="62" cy="16" r="1.8" fill="#fff" opacity=".7"/>
  <ellipse cx="56" cy="30" rx="5" ry="3" fill="#fff" opacity=".45"/>
  <ellipse cx="48" cy="56" rx="6" ry="3" fill="#fff" opacity=".5"/>
</svg>
