<svg xmlns="http://www.w3.org/2000/svg" viewBox="0 0 120 120" role="img" aria-label="Monograma RU">
  <defs>
    <linearGradient id="ouro" x1="0" y1="0" x2="1" y2="1">
      <stop offset="0" stop-color="#F3E3AE"/>
      <stop offset="0.5" stop-color="#D9B45A"/>
      <stop offset="1" stop-color="#B8912A"/>
    </linearGradient>
  </defs>
  <!-- RU em Cormorant Garamond Light, letras entrelaçadas, convertido em traçado -->
  <path fill="url(#ouro)" d="M64.98 82L55.01 82Q53.55 82 50.19 78.65Q46.84 75.29 42.11 69.01Q37.55 63.08 32.05 55.08Q29.47 55.68 26.63 55.68Q25.85 55.68 24.82 55.60Q23.79 55.51 22.93 55.43L22.93 75.03Q22.93 77.53 23.45 78.82Q23.96 80.11 25.64 80.54Q27.32 80.97 30.58 80.97Q30.84 80.97 30.84 81.48Q30.84 82 30.58 82Q28.52 82 26.07 81.91Q23.62 81.83 20.61 81.83Q17.86 81.83 15.28 81.91Q12.70 82 10.63 82Q10.46 82 10.46 81.48Q10.46 80.97 10.63 80.97Q13.90 80.97 15.58 80.54Q17.25 80.11 17.86 78.82Q18.46 77.53 18.46 75.03L18.46 35.22Q18.46 32.72 17.90 31.47Q17.34 30.23 15.71 29.75Q14.07 29.28 10.80 29.28Q10.55 29.28 10.55 28.77Q10.55 28.25 10.80 28.25Q12.78 28.25 15.32 28.38Q17.86 28.51 20.61 28.51Q23.27 28.51 26.80 28.25Q30.33 27.99 32.56 27.99Q39.18 27.99 42.67 31.17Q46.15 34.36 46.15 39.43Q46.15 43.99 43.48 47.69Q40.82 51.38 36.43 53.53Q36.26 53.62 36.09 53.71Q43.23 63.60 48.21 69.53Q53.37 75.72 57.33 78.34Q61.29 80.97 64.98 80.97Q65.24 80.97 65.24 81.48Q65.24 82 64.98 82M41.33 41.75Q41.33 37.11 39.83 34.36Q38.32 31.60 35.53 30.36Q32.73 29.11 28.78 29.11Q25.68 29.11 24.31 30.23Q22.93 31.35 22.93 35.39L22.93 53.45Q24.13 53.53 25.55 53.62Q26.97 53.71 28.09 53.71Q35.49 53.71 38.41 50.61Q41.33 47.51 41.33 41.75"/>
  <path fill="url(#ouro)" d="M104.40 61.96L104.40 37.28Q104.40 33.15 102.64 31.22Q100.88 29.28 97.09 29.28Q96.83 29.28 96.83 28.77Q96.83 28.25 97.09 28.25Q98.98 28.25 101.01 28.38Q103.03 28.51 105.43 28.51Q107.41 28.51 109.43 28.38Q111.45 28.25 113.09 28.25Q113.26 28.25 113.26 28.77Q113.26 29.28 113.09 29.28Q109.65 29.28 107.97 31.22Q106.29 33.15 106.29 37.28L106.29 61.88Q106.29 68.67 103.80 73.40Q101.31 78.13 96.79 80.62Q92.28 83.12 86.26 83.12Q79.89 83.12 75.16 80.58Q70.43 78.04 67.85 73.44Q65.27 68.84 65.27 62.65L65.27 35.22Q65.27 32.72 64.71 31.47Q64.15 30.23 62.52 29.75Q60.89 29.28 57.62 29.28Q57.45 29.28 57.45 28.77Q57.45 28.25 57.62 28.25Q59.68 28.25 62.18 28.38Q64.67 28.51 67.51 28.51Q70.43 28.51 72.97 28.38Q75.51 28.25 77.40 28.25Q77.66 28.25 77.66 28.77Q77.66 29.28 77.40 29.28Q74.13 29.28 72.50 29.80Q70.86 30.31 70.35 31.60Q69.83 32.89 69.83 35.39L69.83 59.64Q69.83 69.79 74.56 75.21Q79.29 80.62 87.80 80.62Q95.72 80.62 100.06 75.64Q104.40 70.65 104.40 61.96"/>
  <line x1="30" y1="98" x2="90" y2="98" stroke="url(#ouro)" stroke-width="1" opacity="0.7"/>
</svg>
